<?xml version="1.0" encoding="UTF-8"?>
<!-- Generated by Pixelmator Pro 3.6.4 -->
<svg width="1648" height="457" viewBox="0 0 1648 457" xmlns="http://www.w3.org/2000/svg">
    <path id="ay" fill="#ffffff" fill-rule="evenodd" stroke="none" d="M 564.248047 399.027344 L 564.248047 355.462891 L 642.828125 355.462891 C 648.748169 355.462891 653.162231 353.955322 656.066406 350.939453 C 658.970581 347.923553 660.421875 343.567749 660.421875 337.871094 L 660.421875 200.3125 C 660.421875 194.615814 658.970581 190.288147 656.066406 187.328125 C 653.162231 184.368073 648.748169 182.888672 642.828125 182.888672 L 564.248047 182.888672 C 558.886475 182.888672 554.643188 184.534943 551.515625 187.830078 C 548.388 191.125214 546.824219 195.286011 546.824219 200.3125 L 546.824219 259.291016 C 546.824219 264.987701 548.331726 269.343506 551.347656 272.359375 C 554.363525 275.375244 558.775574 276.882813 564.583984 276.882813 L 642.828125 276.882813 L 642.828125 320.445313 L 564.248047 320.445313 C 560.115173 320.445313 555.759399 319.970947 551.179688 319.021484 C 546.600037 318.072021 542.047302 316.592651 537.523438 314.582031 C 532.999634 312.571442 528.671936 309.974426 524.539063 306.791016 C 520.406189 303.607574 516.776001 299.754303 513.648438 295.230469 C 510.520844 290.706635 508.00827 285.45639 506.109375 279.480469 C 504.21048 273.504547 503.259766 266.774902 503.259766 259.291016 L 503.259766 200.3125 C 503.259766 196.179596 503.736084 191.823822 504.685547 187.244141 C 505.634979 182.664459 507.11441 178.111725 509.125 173.587891 C 511.13559 169.064056 513.732544 164.736389 516.916016 160.603516 C 520.099426 156.470642 523.952698 152.840485 528.476563 149.712891 C 533.000366 146.585297 538.222473 144.072723 544.142578 142.173828 C 550.062683 140.274933 556.764221 139.324219 564.248047 139.324219 L 642.828125 139.324219 C 646.960999 139.324219 651.346924 139.800568 655.982422 140.75 C 660.617981 141.699463 665.196838 143.178864 669.720703 145.189453 C 674.244507 147.200043 678.572205 149.797028 682.705078 152.980469 C 686.837952 156.16391 690.46814 160.017181 693.595703 164.541016 C 696.723328 169.06485 699.237854 174.286957 701.136719 180.207031 C 703.035645 186.127106 703.984375 192.828613 703.984375 200.3125 L 703.984375 337.871094 C 703.984375 345.354919 703.035645 352.084656 701.136719 358.060547 C 699.237854 364.036438 696.723328 369.286743 693.595703 373.810547 C 690.46814 378.334351 686.837952 382.187653 682.705078 385.371094 C 678.572205 388.554535 674.244507 391.15152 669.720703 393.162109 C 665.196838 395.172699 660.617981 396.6521 655.982422 397.601563 C 651.346924 398.551025 646.960999 399.027344 642.828125 399.027344 L 564.248047 399.027344 Z M 1457.431641 395.662109 L 1457.431641 352.099609 L 1536.011719 352.099609 C 1541.820068 352.099609 1546.175903 350.592041 1549.080078 347.576172 C 1551.984253 344.560272 1553.4375 340.202515 1553.4375 334.505859 L 1553.4375 135.960938 L 1597 135.960938 L 1597 334.505859 C 1597 341.989685 1596.05127 348.721375 1594.152344 354.697266 C 1592.25354 360.673157 1589.738892 365.921509 1586.611328 370.445313 C 1583.483765 374.969116 1579.853638 378.824371 1575.720703 382.007813 C 1571.587891 385.191254 1567.260132 387.788239 1562.736328 389.798828 C 1558.212402 391.809418 1553.659668 393.288849 1549.080078 394.238281 C 1544.500366 395.187744 1540.144531 395.662109 1536.011719 395.662109 L 1457.431641 395.662109 Z M 113.261719 320.445313 C 107.229904 320.445313 100.723442 319.384003 93.742188 317.261719 C 86.760925 315.139404 80.2826 311.706238 74.306641 306.958984 C 68.330673 302.211761 63.331722 296.010773 59.310547 288.359375 C 55.289371 280.708008 53.279297 271.409515 53.279297 260.462891 C 53.279297 254.431107 54.340607 247.896439 56.462891 240.859375 C 58.585175 233.822296 62.020351 227.315765 66.767578 221.339844 C 71.514793 215.363907 77.713776 210.364929 85.365234 206.34375 C 93.016685 202.322571 102.315125 200.3125 113.261719 200.3125 L 191.841797 200.3125 L 191.841797 241.865234 L 113.261719 241.865234 C 107.341606 241.865234 102.762726 243.680313 99.523438 247.310547 C 96.284149 250.940781 94.664063 255.437241 94.664063 260.798828 C 94.664063 266.495483 96.535408 270.93573 100.277344 274.119141 C 104.019279 277.302582 108.459435 278.892578 113.597656 278.892578 L 191.841797 278.892578 C 197.761887 278.892578 202.342743 277.105652 205.582031 273.53125 C 208.82132 269.956848 210.441406 265.490479 210.441406 260.128906 L 210.441406 199.306641 C 210.441406 193.609955 208.680649 189.087311 205.162109 185.736328 C 201.643585 182.385345 197.203384 180.708984 191.841797 180.708984 L 96.171875 180.708984 L 96.171875 139.324219 L 191.841797 139.324219 C 197.873581 139.324219 204.380112 140.385529 211.361328 142.507813 C 218.34256 144.630096 224.820953 148.065277 230.796875 152.8125 C 236.772797 157.559723 241.771774 163.758759 245.792969 171.410156 C 249.814148 179.061584 251.826172 188.360077 251.826172 199.306641 L 251.826172 260.462891 C 251.826172 266.494659 250.764877 273.001221 248.642578 279.982422 C 246.520294 286.963654 243.085114 293.442047 238.337891 299.417969 C 233.590652 305.39389 227.391617 310.392883 219.740234 314.414063 C 212.088852 318.435242 202.788437 320.445313 191.841797 320.445313 L 113.261719 320.445313 Z M 277.021484 320.445313 L 277.021484 160.939453 C 277.021484 157.923584 277.580261 155.101501 278.697266 152.476563 C 279.81424 149.851624 281.378082 147.562164 283.388672 145.607422 C 285.399261 143.652679 287.744995 142.117004 290.425781 141 C 293.106567 139.882996 295.954803 139.324219 298.970703 139.324219 L 397.154297 139.324219 C 402.627563 139.324219 408.408447 139.93927 414.496094 141.167969 C 420.58371 142.396667 426.613922 144.378601 432.589844 147.115234 C 438.565796 149.851868 444.264191 153.315186 449.681641 157.503906 C 455.09906 161.692657 459.901093 166.776031 464.089844 172.751953 C 468.278564 178.727905 471.601196 185.62439 474.058594 193.443359 C 476.515991 201.262299 477.746094 210.086487 477.746094 219.916016 L 477.746094 320.445313 L 434.181641 320.445313 L 434.181641 219.916016 C 434.181641 214.219345 433.204742 209.109772 431.25 204.585938 C 429.295258 200.062103 426.641998 196.180695 423.291016 192.941406 C 419.940033 189.702118 416.004303 187.215729 411.480469 185.484375 C 406.956635 183.753021 402.068237 182.888672 396.818359 182.888672 L 320.583984 182.888672 L 320.583984 320.445313 L 277.021484 320.445313 Z M 789.158203 320.445313 C 783.126404 320.445313 776.619873 319.384003 769.638672 317.261719 C 762.65741 315.139404 756.179016 311.706238 750.203125 306.958984 C 744.227173 302.211761 739.22821 296.010742 735.207031 288.359375 C 731.185852 280.708008 729.175781 271.409485 729.175781 260.462891 L 729.175781 199.306641 C 729.175781 193.274872 730.237061 186.770294 732.359375 179.789063 C 734.481628 172.807861 737.914856 166.327515 742.662109 160.351563 C 747.409363 154.375641 753.610291 149.378601 761.261719 145.357422 C 768.913147 141.336212 778.211548 139.324219 789.158203 139.324219 L 867.738281 139.324219 C 873.770081 139.324219 880.27655 140.385529 887.257813 142.507813 C 894.239014 144.630096 900.717407 148.065277 906.693359 152.8125 C 912.66925 157.559723 917.668274 163.758759 921.689453 171.410156 C 925.710632 179.061584 927.720703 188.360077 927.720703 199.306641 C 927.720703 205.338425 926.659363 211.844955 924.537109 218.826172 C 922.414795 225.807388 918.981628 232.287735 914.234375 238.263672 C 909.487183 244.239594 903.286194 249.236618 895.634766 253.257813 C 887.983337 257.278992 878.684937 259.291016 867.738281 259.291016 L 789.158203 259.291016 L 789.158203 217.90625 L 867.738281 217.90625 C 873.658386 217.90625 878.239197 216.091171 881.478516 212.460938 C 884.717773 208.830688 886.335938 204.334229 886.335938 198.972656 C 886.335938 193.27597 884.520874 188.807648 880.890625 185.568359 C 877.260376 182.329071 872.876465 180.708984 867.738281 180.708984 L 789.158203 180.708984 C 783.238159 180.708984 778.657227 182.524048 775.417969 186.154297 C 772.17865 189.784546 770.560547 194.280975 770.560547 199.642578 L 770.560547 260.462891 C 770.560547 266.27124 772.37561 270.795868 776.005859 274.035156 C 779.636047 277.274445 784.130615 278.892578 789.492188 278.892578 L 867.738281 278.892578 L 867.738281 320.445313 L 789.158203 320.445313 Z M 1010.193359 320.445313 C 1003.938171 320.445313 997.262817 319.384003 990.169922 317.261719 C 983.076965 315.139404 976.4599 311.649933 970.316406 306.791016 C 964.172913 301.932068 959.089539 295.620483 955.068359 287.857422 C 951.047119 280.09436 949.037109 270.572723 949.037109 259.291016 L 949.037109 62.753906 L 992.599609 62.753906 L 992.599609 259.291016 C 992.599609 264.652588 994.276001 268.924011 997.626953 272.107422 C 1000.977966 275.290863 1005.16687 276.882813 1010.193359 276.882813 L 1029.628906 276.882813 L 1029.628906 320.445313 L 1010.193359 320.445313 Z M 1055.007813 320.445313 L 1055.007813 149.748047 C 1055.007813 139.114105 1055.958984 129.591644 1057.861328 121.179688 C 1059.763672 112.767731 1062.308838 105.34787 1065.498047 98.919922 C 1068.687256 92.492004 1072.351807 87.015533 1076.492188 82.492188 C 1080.632568 77.968811 1084.968018 74.278748 1089.5 71.421875 C 1094.031982 68.565033 1098.621704 66.462372 1103.265625 65.113281 C 1107.909546 63.764221 1112.244995 63.089844 1116.273438 63.089844 L 1214.802734 63.089844 L 1214.802734 124.988281 L 1116.609375 124.988281 C 1110.678467 124.988281 1106.203003 127.090912 1103.181641 131.296875 C 1100.160278 135.502808 1098.648438 141.653534 1098.648438 149.748047 L 1098.648438 320.445313 L 1055.007813 320.445313 Z M 1231.521484 320.445313 C 1225.489624 320.445313 1218.983154 319.384003 1212.001953 317.261719 C 1205.020752 315.139404 1198.542236 311.706238 1192.566406 306.958984 C 1186.590454 302.211761 1181.591553 296.010742 1177.570313 288.359375 C 1173.549194 280.708008 1171.539063 271.409393 1171.539063 260.462891 C 1171.539063 254.431107 1172.600464 247.896439 1174.722656 240.859375 C 1176.844971 233.822296 1180.280151 227.315765 1185.027344 221.339844 C 1189.774536 215.363907 1195.973511 210.364929 1203.625 206.34375 C 1211.276367 202.322571 1220.574951 200.3125 1231.521484 200.3125 L 1310.101563 200.3125 L 1310.101563 241.865234 L 1231.521484 241.865234 C 1225.601318 241.865234 1221.022583 243.680313 1217.783203 247.310547 C 1214.543945 250.940781 1212.923828 255.437241 1212.923828 260.798828 C 1212.923828 266.495483 1214.795166 270.93573 1218.537109 274.119141 C 1222.279053 277.302582 1226.719238 278.892578 1231.857422 278.892578 L 1310.101563 278.892578 C 1316.021729 278.892578 1320.602417 277.105652 1323.841797 273.53125 C 1327.081055 269.956848 1328.701172 265.490479 1328.701172 260.128906 L 1328.701172 199.306641 C 1328.701172 193.609955 1326.94043 189.087311 1323.421875 185.736328 C 1319.90332 182.385345 1315.463135 180.708984 1310.101563 180.708984 L 1214.431641 180.708984 L 1214.431641 139.324219 L 1310.101563 139.324219 C 1316.133423 139.324219 1322.639893 140.385529 1329.621094 142.507813 C 1336.602295 144.630096 1343.082764 148.065277 1349.058594 152.8125 C 1355.034546 157.559723 1360.031494 163.758759 1364.052734 171.410156 C 1368.073975 179.061584 1370.085938 188.360077 1370.085938 199.306641 L 1370.085938 260.462891 C 1370.085938 266.494659 1369.024536 273.001221 1366.902344 279.982422 C 1364.780029 286.963654 1361.344849 293.442047 1356.597656 299.417969 C 1351.850464 305.39389 1345.651489 310.392883 1338 314.414063 C 1330.348633 318.435242 1321.048096 320.445313 1310.101563 320.445313 L 1231.521484 320.445313 Z M 1457.431641 317.082031 C 1451.176514 317.082031 1444.503052 316.020752 1437.410156 313.898438 C 1430.317139 311.776154 1423.69812 308.284729 1417.554688 303.425781 C 1411.411133 298.566833 1406.329834 292.257202 1402.308594 284.494141 C 1398.287476 276.731079 1396.275391 267.207397 1396.275391 255.925781 L 1396.275391 135.960938 L 1439.837891 135.960938 L 1439.837891 255.925781 C 1439.837891 261.622437 1441.347412 265.978241 1444.363281 268.994141 C 1447.37915 272.01001 1451.845581 273.519531 1457.765625 273.519531 L 1536.011719 273.519531 L 1536.011719 317.082031 L 1457.431641 317.082031 Z"/>
</svg>
