<?xml version="1.0" encoding="UTF-8"?>
<!-- Generated by Pixelmator Pro 3.6.4 -->
<svg width="1800" height="457" viewBox="0 0 1800 457" xmlns="http://www.w3.org/2000/svg">
    <path id="ay" fill="#ffffff" fill-rule="evenodd" stroke="none" d="M 635.248047 399.027344 L 635.248047 355.462891 L 713.828125 355.462891 C 719.748169 355.462891 724.162231 353.955322 727.066406 350.939453 C 729.970581 347.923553 731.421875 343.567749 731.421875 337.871094 L 731.421875 200.3125 C 731.421875 194.615814 729.970581 190.288147 727.066406 187.328125 C 724.162231 184.368073 719.748169 182.888672 713.828125 182.888672 L 635.248047 182.888672 C 629.886475 182.888672 625.643188 184.534943 622.515625 187.830078 C 619.388 191.125214 617.824219 195.286011 617.824219 200.3125 L 617.824219 259.291016 C 617.824219 264.987701 619.331726 269.343506 622.347656 272.359375 C 625.363525 275.375244 629.775574 276.882813 635.583984 276.882813 L 713.828125 276.882813 L 713.828125 320.445313 L 635.248047 320.445313 C 631.115173 320.445313 626.759399 319.970947 622.179688 319.021484 C 617.600037 318.072021 613.047302 316.592651 608.523438 314.582031 C 603.999634 312.571442 599.671936 309.974426 595.539063 306.791016 C 591.406189 303.607574 587.776001 299.754303 584.648438 295.230469 C 581.520813 290.706635 579.00824 285.45639 577.109375 279.480469 C 575.210449 273.504547 574.259766 266.774902 574.259766 259.291016 L 574.259766 200.3125 C 574.259766 196.179596 574.736145 191.823822 575.685547 187.244141 C 576.63501 182.664459 578.114441 178.111725 580.125 173.587891 C 582.13562 169.064056 584.732544 164.736389 587.916016 160.603516 C 591.099426 156.470642 594.952698 152.840485 599.476563 149.712891 C 604.000366 146.585297 609.222473 144.072723 615.142578 142.173828 C 621.062683 140.274933 627.764221 139.324219 635.248047 139.324219 L 713.828125 139.324219 C 717.960999 139.324219 722.346924 139.800568 726.982422 140.75 C 731.617981 141.699463 736.196838 143.178864 740.720703 145.189453 C 745.244507 147.200043 749.572205 149.797028 753.705078 152.980469 C 757.837952 156.16391 761.46814 160.017181 764.595703 164.541016 C 767.723328 169.06485 770.237854 174.286957 772.136719 180.207031 C 774.035645 186.127106 774.984375 192.828613 774.984375 200.3125 L 774.984375 337.871094 C 774.984375 345.354919 774.035645 352.084656 772.136719 358.060547 C 770.237854 364.036438 767.723328 369.286743 764.595703 373.810547 C 761.46814 378.334351 757.837952 382.187653 753.705078 385.371094 C 749.572205 388.554535 745.244507 391.15152 740.720703 393.162109 C 736.196838 395.172699 731.617981 396.6521 726.982422 397.601563 C 722.346924 398.551025 717.960999 399.027344 713.828125 399.027344 L 635.248047 399.027344 Z M 1556.431641 395.662109 L 1556.431641 352.099609 L 1635.011719 352.099609 C 1640.820068 352.099609 1645.175903 350.592041 1648.080078 347.576172 C 1650.984253 344.560272 1652.4375 340.202515 1652.4375 334.505859 L 1652.4375 135.960938 L 1696 135.960938 L 1696 334.505859 C 1696 341.989685 1695.05127 348.721375 1693.152344 354.697266 C 1691.25354 360.673157 1688.738892 365.921509 1685.611328 370.445313 C 1682.483765 374.969116 1678.853638 378.824371 1674.720703 382.007813 C 1670.587891 385.191254 1666.260132 387.788239 1661.736328 389.798828 C 1657.212402 391.809418 1652.659668 393.288849 1648.080078 394.238281 C 1643.500366 395.187744 1639.144531 395.662109 1635.011719 395.662109 L 1556.431641 395.662109 Z M 163.261719 320.445313 C 157.229889 320.445313 150.723465 319.384003 143.742188 317.261719 C 136.76091 315.139404 130.282608 311.706238 124.306641 306.958984 C 118.330673 302.211761 113.331718 296.010773 109.310547 288.359375 C 105.289375 280.708008 103.279297 271.409515 103.279297 260.462891 C 103.279297 254.431107 104.340599 247.896439 106.462891 240.859375 C 108.585182 233.822296 112.020363 227.315765 116.767578 221.339844 C 121.514793 215.363907 127.713783 210.364929 135.365234 206.34375 C 143.016678 202.322571 152.31514 200.3125 163.261719 200.3125 L 241.841797 200.3125 L 241.841797 241.865234 L 163.261719 241.865234 C 157.341583 241.865234 152.762726 243.680313 149.523438 247.310547 C 146.284149 250.940781 144.664063 255.437241 144.664063 260.798828 C 144.664063 266.495483 146.535416 270.93573 150.277344 274.119141 C 154.019272 277.302582 158.459427 278.892578 163.597656 278.892578 L 241.841797 278.892578 C 247.761887 278.892578 252.342743 277.105652 255.582031 273.53125 C 258.821289 269.956848 260.441406 265.490479 260.441406 260.128906 L 260.441406 199.306641 C 260.441406 193.609955 258.680634 189.087311 255.162109 185.736328 C 251.643585 182.385345 247.203384 180.708984 241.841797 180.708984 L 146.171875 180.708984 L 146.171875 139.324219 L 241.841797 139.324219 C 247.873581 139.324219 254.380112 140.385529 261.361328 142.507813 C 268.34256 144.630096 274.820953 148.065277 280.796875 152.8125 C 286.772797 157.559723 291.77179 163.758759 295.792969 171.410156 C 299.814148 179.061584 301.826172 188.360077 301.826172 199.306641 L 301.826172 260.462891 C 301.826172 266.494659 300.764862 273.001221 298.642578 279.982422 C 296.520294 286.963654 293.085144 293.442047 288.337891 299.417969 C 283.590668 305.39389 277.391663 310.392883 269.740234 314.414063 C 262.088806 318.435242 252.788437 320.445313 241.841797 320.445313 L 163.261719 320.445313 Z M 339.021484 320.445313 L 339.021484 160.939453 C 339.021484 157.923584 339.580261 155.101501 340.697266 152.476563 C 341.81424 149.851624 343.378082 147.562164 345.388672 145.607422 C 347.399261 143.652679 349.744995 142.117004 352.425781 141 C 355.106567 139.882996 357.954803 139.324219 360.970703 139.324219 L 459.154297 139.324219 C 464.627563 139.324219 470.408447 139.93927 476.496094 141.167969 C 482.58371 142.396667 488.613922 144.378601 494.589844 147.115234 C 500.565796 149.851868 506.264191 153.315186 511.681641 157.503906 C 517.098999 161.692657 521.901123 166.776031 526.089844 172.751953 C 530.278625 178.727905 533.601257 185.62439 536.058594 193.443359 C 538.515991 201.262299 539.746094 210.086487 539.746094 219.916016 L 539.746094 320.445313 L 496.181641 320.445313 L 496.181641 219.916016 C 496.181641 214.219345 495.204742 209.109772 493.25 204.585938 C 491.295258 200.062103 488.641998 196.180695 485.291016 192.941406 C 481.940033 189.702118 478.004303 187.215729 473.480469 185.484375 C 468.956635 183.753021 464.068237 182.888672 458.818359 182.888672 L 382.583984 182.888672 L 382.583984 320.445313 L 339.021484 320.445313 Z M 871.158203 320.445313 C 865.126404 320.445313 858.619873 319.384003 851.638672 317.261719 C 844.65741 315.139404 838.179016 311.706238 832.203125 306.958984 C 826.227173 302.211761 821.22821 296.010742 817.207031 288.359375 C 813.185852 280.708008 811.175781 271.409485 811.175781 260.462891 L 811.175781 199.306641 C 811.175781 193.274872 812.237061 186.770294 814.359375 179.789063 C 816.481628 172.807861 819.914856 166.327515 824.662109 160.351563 C 829.409363 154.375641 835.610291 149.378601 843.261719 145.357422 C 850.913147 141.336212 860.211548 139.324219 871.158203 139.324219 L 949.738281 139.324219 C 955.770081 139.324219 962.27655 140.385529 969.257813 142.507813 C 976.239014 144.630096 982.717407 148.065277 988.693359 152.8125 C 994.66925 157.559723 999.668274 163.758759 1003.689453 171.410156 C 1007.710632 179.061584 1009.720703 188.360077 1009.720703 199.306641 C 1009.720703 205.338425 1008.659363 211.844955 1006.537109 218.826172 C 1004.414795 225.807388 1000.981628 232.287735 996.234375 238.263672 C 991.487183 244.239594 985.286194 249.236618 977.634766 253.257813 C 969.983337 257.278992 960.684937 259.291016 949.738281 259.291016 L 871.158203 259.291016 L 871.158203 217.90625 L 949.738281 217.90625 C 955.658386 217.90625 960.239197 216.091171 963.478516 212.460938 C 966.717773 208.830688 968.335938 204.334229 968.335938 198.972656 C 968.335938 193.27597 966.520874 188.807648 962.890625 185.568359 C 959.260376 182.329071 954.876465 180.708984 949.738281 180.708984 L 871.158203 180.708984 C 865.238159 180.708984 860.657227 182.524048 857.417969 186.154297 C 854.17865 189.784546 852.560547 194.280975 852.560547 199.642578 L 852.560547 260.462891 C 852.560547 266.27124 854.37561 270.795868 858.005859 274.035156 C 861.636047 277.274445 866.130615 278.892578 871.492188 278.892578 L 949.738281 278.892578 L 949.738281 320.445313 L 871.158203 320.445313 Z M 1099.193359 320.445313 C 1092.938232 320.445313 1086.262817 319.384003 1079.169922 317.261719 C 1072.077026 315.139404 1065.459839 311.649933 1059.316406 306.791016 C 1053.172974 301.932068 1048.089478 295.620483 1044.068359 287.857422 C 1040.047119 280.09436 1038.037109 270.572723 1038.037109 259.291016 L 1038.037109 62.753906 L 1081.599609 62.753906 L 1081.599609 259.291016 C 1081.599609 264.652588 1083.276001 268.924011 1086.626953 272.107422 C 1089.977905 275.290863 1094.16687 276.882813 1099.193359 276.882813 L 1118.628906 276.882813 L 1118.628906 320.445313 L 1099.193359 320.445313 Z M 1144.007813 320.445313 L 1144.007813 149.748047 C 1144.007813 139.114105 1144.958984 129.591644 1146.861328 121.179688 C 1148.763672 112.767731 1151.308838 105.34787 1154.498047 98.919922 C 1157.687256 92.492004 1161.351807 87.015533 1165.492188 82.492188 C 1169.632568 77.968811 1173.968018 74.278748 1178.5 71.421875 C 1183.031982 68.565033 1187.621704 66.462372 1192.265625 65.113281 C 1196.909546 63.764221 1201.244995 63.089844 1205.273438 63.089844 L 1303.802734 63.089844 L 1303.802734 124.988281 L 1205.609375 124.988281 C 1199.678467 124.988281 1195.203003 127.090912 1192.181641 131.296875 C 1189.160278 135.502808 1187.648438 141.653534 1187.648438 149.748047 L 1187.648438 320.445313 L 1144.007813 320.445313 Z M 1320.521484 320.445313 C 1314.489624 320.445313 1307.983154 319.384003 1301.001953 317.261719 C 1294.020752 315.139404 1287.542236 311.706238 1281.566406 306.958984 C 1275.590454 302.211761 1270.591553 296.010742 1266.570313 288.359375 C 1262.549194 280.708008 1260.539063 271.409393 1260.539063 260.462891 C 1260.539063 254.431107 1261.600464 247.896439 1263.722656 240.859375 C 1265.844971 233.822296 1269.280151 227.315765 1274.027344 221.339844 C 1278.774536 215.363907 1284.973511 210.364929 1292.625 206.34375 C 1300.276367 202.322571 1309.574951 200.3125 1320.521484 200.3125 L 1399.101563 200.3125 L 1399.101563 241.865234 L 1320.521484 241.865234 C 1314.601318 241.865234 1310.022583 243.680313 1306.783203 247.310547 C 1303.543945 250.940781 1301.923828 255.437241 1301.923828 260.798828 C 1301.923828 266.495483 1303.795166 270.93573 1307.537109 274.119141 C 1311.279053 277.302582 1315.719238 278.892578 1320.857422 278.892578 L 1399.101563 278.892578 C 1405.021729 278.892578 1409.602417 277.105652 1412.841797 273.53125 C 1416.081055 269.956848 1417.701172 265.490479 1417.701172 260.128906 L 1417.701172 199.306641 C 1417.701172 193.609955 1415.94043 189.087311 1412.421875 185.736328 C 1408.90332 182.385345 1404.463135 180.708984 1399.101563 180.708984 L 1303.431641 180.708984 L 1303.431641 139.324219 L 1399.101563 139.324219 C 1405.133423 139.324219 1411.639893 140.385529 1418.621094 142.507813 C 1425.602295 144.630096 1432.082764 148.065277 1438.058594 152.8125 C 1444.034546 157.559723 1449.031494 163.758759 1453.052734 171.410156 C 1457.073975 179.061584 1459.085938 188.360077 1459.085938 199.306641 L 1459.085938 260.462891 C 1459.085938 266.494659 1458.024536 273.001221 1455.902344 279.982422 C 1453.780029 286.963654 1450.344849 293.442047 1445.597656 299.417969 C 1440.850464 305.39389 1434.651489 310.392883 1427 314.414063 C 1419.348633 318.435242 1410.048096 320.445313 1399.101563 320.445313 L 1320.521484 320.445313 Z M 1556.431641 317.082031 C 1550.176514 317.082031 1543.503052 316.020752 1536.410156 313.898438 C 1529.317139 311.776154 1522.69812 308.284729 1516.554688 303.425781 C 1510.411133 298.566833 1505.329834 292.257202 1501.308594 284.494141 C 1497.287476 276.731079 1495.275391 267.207397 1495.275391 255.925781 L 1495.275391 135.960938 L 1538.837891 135.960938 L 1538.837891 255.925781 C 1538.837891 261.622437 1540.347412 265.978241 1543.363281 268.994141 C 1546.37915 272.01001 1550.845581 273.519531 1556.765625 273.519531 L 1635.011719 273.519531 L 1635.011719 317.082031 L 1556.431641 317.082031 Z"/>
</svg>
