<svg xmlns="http://www.w3.org/2000/svg" version="1.1" xmlns:xlink="http://www.w3.org/1999/xlink" xmlns:svgjs="http://svgjs.com/svgjs" width="1800" height="1800"><svg width="1800" height="1800" viewBox="0 0 1800 1800" xmlns="http://www.w3.org/2000/svg">
    <g id="SvgjsG1005">
        <path id="SvgjsPath1004" fill="#000000" fill-rule="evenodd" stroke="none" d="M 789.09668 750.344238 C 691.355042 706.922363 632.954773 560.202515 580.428772 567.244995 C 496.049622 578.558228 479.337067 764.023438 546.20282 870.893921 C 602.141968 960.30072 690.24408 1026.86499 807.865784 1028.973389 C 931.379822 1031.187256 1115.965942 894.914001 1080.569336 827.677979 C 1038.266846 747.323975 917.907227 807.568359 789.09668 750.344238 Z"></path>
        <path id="SvgjsPath1003" fill="#000000" fill-rule="evenodd" stroke="none" d="M 1248.716309 98.099976 C 1248.716309 98.099976 1250.182617 98.204712 1246.646606 97.065063 C 1069.975708 40.119629 897.998413 67.111328 741.655457 121.900757 C 607.531189 168.903687 467.378052 257.226685 385.678101 382.674927 C 314.766785 491.557373 264.129364 629.536255 253.22139 750.035278 C 252.700058 755.793945 254.750183 760.970947 247.012482 765.557495 C 239.053268 770.275391 131.275436 783.763245 87.650513 885.596436 C 45.011005 985.129333 64.139221 1072.861816 107.31205 1087.385986 C 152.012222 1102.423828 180.095306 1059.121826 199.410858 1032.540527 C 206.984909 1022.117493 221.445267 979.035339 245.977661 965.277405 C 253.723328 960.933472 269.998901 954.251099 279.091827 954.929199 C 288.056885 955.597717 290.723511 976.545959 290.474823 980.799683 C 284.075867 1090.258423 383.968842 1303.418335 537.796326 1447.502563 C 968.628906 1851.046753 1549.376587 1717.329834 1588.136597 1699.998169 C 1695.398926 1652.0354 1706.908203 1601.689941 1703.001343 1591.342285 C 1698.941406 1580.589233 1685.965576 1569.834473 1636.773071 1562.367432 C 1614.57373 1558.997681 1523.544067 1572.974854 1498.107422 1538.566528 C 1462.664429 1490.622803 1407.269531 1376.983154 1468.097656 1213.633789 C 1484.606812 1169.299805 1714.275269 817.222534 1675.061279 621.717773 C 1638.48645 439.370361 1602.59375 346.091064 1445.331665 223.312866 C 1390.953003 180.858154 1286.147461 110.45752 1250.785889 99.134766 C 1247.420654 98.057251 1248.716309 98.099976 1248.716309 98.099976 L 1224.915527 153.980103 C 1224.915527 153.980103 1225.980957 154.955811 1228.019897 156.049683 C 1348.380005 220.626709 1427.738647 263.951172 1527.082275 390.953369 C 1551.619873 422.322632 1564.487061 443.93811 1596.415161 526.514526 C 1629.987061 613.342651 1655.341919 737.76001 1574.68396 901.118652 C 1531.573242 988.431946 1396.006348 1192.289551 1383.242676 1356.438599 C 1377.106079 1435.358887 1410.351807 1558.38562 1486.724487 1593.411865 C 1513.57312 1605.725342 1648.148682 1601.550049 1649.190796 1612.038574 C 1650.368408 1623.890503 1614.283447 1650.625 1588.136597 1655.500977 C 1251.838257 1718.215698 775.721497 1698.978638 426.03598 1236.399658 C 370.73291 1163.242432 348.776306 1073.908447 329.797913 969.416687 C 326.013092 948.578186 323.646484 919.951172 299.788208 917.675781 C 259.216888 913.806396 217.399033 931.525146 192.16713 969.416687 C 178.907639 989.328857 167.796982 1050.331055 129.043228 1043.923584 C 84.737686 1036.598145 106.687523 941.690002 125.938774 901.118652 C 157.919357 833.720825 210.129593 814.054138 241.838394 809.019897 C 263.682556 805.551758 338.173798 837.167908 342.215729 810.054688 C 345.554443 787.658813 303.211182 780.570496 296.683746 776.940552 C 289.392334 772.885742 296.786011 760.395508 297.718567 752.104858 C 330.186432 463.452393 491.933624 296.817139 696.123474 204.686157 C 960.186401 85.540283 1103.000122 123.763428 1221.811035 152.945313 C 1222.870361 153.205444 1224.915527 153.980103 1224.915527 153.980103 C 1224.915527 153.980103 1248.716309 98.099976 1248.716309 98.099976 Z"></path>
        <path id="SvgjsPath1002" fill="#000000" fill-rule="evenodd" stroke="none" d="M 1301.492065 1013.913818 C 1313.219727 990.71582 1264.415039 975.092224 1223.880615 970.451477 C 1184.860718 965.984009 1142.427856 976.558838 1109.015869 1002.530823 C 1087.737305 1019.071228 1069.219482 1034.745728 1051.06604 1057.376221 C 1032.619385 1080.372314 1013.631592 1109.518555 1008.63855 1138.092041 C 1001.379761 1179.631226 1002.45929 1237.489746 1036.578613 1262.270142 C 1057.209961 1277.254395 1066.192261 1277.471069 1089.35437 1269.513916 C 1129.24646 1255.809326 1178.389404 1154.000977 1220.776245 1168.101807 C 1239.740112 1174.4104 1254.793335 1190.705566 1264.238525 1177.415039 C 1274.070435 1163.580444 1228.744263 1140.738281 1206.288696 1139.126831 C 1176.314819 1136.97583 1138.586426 1186.57666 1120.398804 1202.250732 C 1098.711426 1220.941162 1089.776733 1240.477051 1058.309814 1223.981934 C 1012.03186 1199.722534 1050.470703 1115.723389 1082.110596 1079.107422 C 1131.243286 1022.247437 1183.518311 995.202881 1221.811035 1000.461182 C 1268.56665 1006.881714 1289.880615 1036.881714 1301.492065 1013.913818 Z"></path>
        <path id="SvgjsPath1001" fill="#000000" fill-rule="evenodd" stroke="none" d="M 693.312134 237.919922 C 598.345032 250.230957 521.172913 351.008179 506.547821 419.613037 C 489.664825 498.810059 615.437134 498.542236 662.90863 523.234863 C 719.552551 552.69873 776.692871 618.273682 793.209351 629.695679 C 867.357422 680.973633 904.052063 448.347778 872.837524 365.672852 C 846.489868 295.888184 767.605896 228.28894 693.312134 237.919922 Z"></path>
        <path id="SvgjsPath1000" fill="#000000" fill-rule="evenodd" stroke="none" d="M 1278.779785 488.103271 C 1112.299683 411.834106 866.54895 571.315918 884.609985 653.934326 C 901.652466 731.893555 993.840332 677.531982 1094.098877 735.369141 C 1171.779297 780.181702 1165.301514 800.145142 1233.298706 855.300537 C 1275.556641 889.57782 1362.217896 816.22876 1376.633179 745.733643 C 1395.110718 655.372314 1376.535889 532.888184 1278.779785 488.103271 Z"></path>
    </g>
</svg><style>@media (prefers-color-scheme: light) { :root { filter: none; } }
@media (prefers-color-scheme: dark) { :root { filter: invert(100%); } }
</style></svg>